<svg width="459" height="150" viewBox="0 0 459 150" fill="none" xmlns="http://www.w3.org/2000/svg">
<path fill-rule="evenodd" clip-rule="evenodd" d="M268.086 47.3484C275.486 47.3484 282.064 48.9928 287.82 52.2817C293.575 55.4532 298.039 60.2103 301.21 66.5532C304.499 72.7786 306.144 80.2961 306.144 89.1056V144.239C306.144 145.415 305.191 146.368 304.015 146.368H283.606C282.43 146.368 281.477 145.415 281.477 144.239V92.4533C281.477 84.7009 279.539 78.7691 275.663 74.658C271.786 70.4294 266.501 68.3151 259.805 68.3151C252.993 68.3151 247.59 70.4294 243.596 74.658C239.72 78.7691 237.782 84.7009 237.782 92.4533V144.239C237.782 145.415 236.828 146.368 235.653 146.368H215.244C214.068 146.368 213.115 145.415 213.115 144.239V3.19328C213.115 2.01756 214.068 1.06445 215.244 1.06445H235.653C236.828 1.06445 237.782 2.01756 237.782 3.19328V60.9151C240.953 56.6865 245.182 53.3976 250.467 51.0484C255.753 48.5817 261.626 47.3484 268.086 47.3484ZM97.8769 103.179C98.1733 100.824 98.3216 98.2476 98.3216 95.4485C98.3216 85.9342 96.266 77.5358 92.1549 70.2532C88.1612 62.8532 82.4644 57.1564 75.0644 53.1627C67.7818 49.169 59.5008 47.1722 50.2214 47.1722C40.5897 47.1722 32.0738 49.2278 24.6738 53.3389C17.2737 57.45 11.5182 63.323 7.40704 70.958C3.29592 78.5929 1.24036 87.4612 1.24036 97.5628V147.953H50.2214C61.85 147.953 71.658 144.958 79.6453 138.968C86.85 133.458 91.9522 126.611 94.9518 118.425C95.4425 117.086 94.4197 115.71 92.9937 115.71H70.5746C69.7636 115.71 69.0292 116.176 68.6355 116.885C64.7011 123.972 58.3869 127.515 49.6929 127.515C43.35 127.515 38.0055 125.518 33.6595 121.525C29.3134 117.531 26.8468 112.01 26.2595 104.963H95.8134C96.8541 104.963 97.7469 104.211 97.8769 103.179ZM115.758 71.1342C111.647 78.6516 109.592 87.4612 109.592 97.5628C109.592 107.664 111.647 116.533 115.758 124.168C119.869 131.685 125.566 137.558 132.849 141.787C140.131 145.898 148.471 147.953 157.868 147.953C169.849 147.953 179.833 144.841 187.82 138.615C195.131 132.917 200.228 125.398 203.111 116.059C203.52 114.731 202.502 113.42 201.113 113.42H178.771C177.86 113.42 177.059 114.004 176.716 114.847C173.47 122.823 167.129 126.81 157.692 126.81C150.644 126.81 145.065 124.285 140.954 119.234C136.843 114.066 134.787 106.842 134.787 97.5628C134.787 88.166 136.843 80.9421 140.954 75.8913C145.065 70.7231 150.644 68.1389 157.692 68.1389C162.625 68.1389 166.736 69.3723 170.025 71.8389C173.035 73.9146 175.265 76.7239 176.716 80.2668C177.063 81.1147 177.867 81.7056 178.783 81.7056H201.134C202.517 81.7056 203.534 80.4059 203.14 79.0807C200.262 69.418 195.156 61.8358 187.82 56.3341C179.951 50.2262 169.966 47.1722 157.868 47.1722C148.471 47.1722 140.131 49.2865 132.849 53.5151C125.566 57.6262 119.869 63.4992 115.758 71.1342ZM343.657 141.787C351.174 145.898 359.631 147.953 369.028 147.953C378.542 147.953 387.117 145.898 394.752 141.787C402.504 137.558 408.612 131.626 413.076 123.991C417.657 116.357 419.947 107.547 419.947 97.5628C419.947 87.5787 417.716 78.7691 413.252 71.1342C408.906 63.4992 402.915 57.6262 395.281 53.5151C387.646 49.2865 379.13 47.1722 369.733 47.1722C360.336 47.1722 351.82 49.2865 344.185 53.5151C336.55 57.6262 330.501 63.4992 326.038 71.1342C321.691 78.7691 319.518 87.5787 319.518 97.5628C319.518 107.547 321.633 116.357 325.861 123.991C330.207 131.626 336.139 137.558 343.657 141.787ZM65.9019 73.2486C70.3654 77.0073 72.6559 82.0581 72.7733 88.401H26.4351C27.3748 81.8232 29.9002 76.7137 34.0113 73.0724C38.2399 69.3137 43.4082 67.4343 49.5161 67.4343C55.9765 67.4343 61.4384 69.3724 65.9019 73.2486ZM369.028 126.458C373.492 126.458 377.662 125.401 381.538 123.287C385.532 121.055 388.703 117.766 391.052 113.42C393.401 109.074 394.576 103.788 394.576 97.5628C394.576 88.2834 392.109 81.177 387.176 76.2437C382.36 71.1929 376.428 68.6675 369.381 68.6675C362.333 68.6675 356.401 71.1929 351.585 76.2437C346.887 81.177 344.538 88.2834 344.538 97.5628C344.538 106.842 346.828 114.007 351.409 119.058C356.108 123.991 361.981 126.458 369.028 126.458Z" fill="url(#paint0_linear_44_42)"/>
<path fill-rule="evenodd" clip-rule="evenodd" d="M212.05 3.19324C212.05 1.42967 213.48 0 215.244 0H235.653C237.416 0 238.846 1.42966 238.846 3.19324V57.9668C241.857 54.6804 245.589 52.0528 250.026 50.0796C255.465 47.5432 261.491 46.284 268.086 46.284C275.647 46.284 282.408 47.9651 288.341 51.3537C294.294 54.636 298.899 59.5552 302.157 66.0673C305.541 72.4775 307.208 80.1707 307.208 89.1056V144.239C307.208 146.002 305.778 147.432 304.015 147.432H283.606C281.842 147.432 280.412 146.002 280.412 144.239V92.4533C280.412 84.87 278.518 79.2381 274.888 75.3882L274.878 75.3772C271.238 71.4058 266.257 69.3795 259.805 69.3795C253.231 69.3795 248.128 71.4098 244.37 75.3888C240.74 79.2388 238.846 84.8704 238.846 92.4533V144.239C238.846 146.002 237.416 147.432 235.653 147.432H215.244C213.48 147.432 212.05 146.002 212.05 144.239V3.19324ZM215.244 2.12883C214.656 2.12883 214.179 2.60538 214.179 3.19324V144.239C214.179 144.827 214.656 145.303 215.244 145.303H235.653C236.241 145.303 236.717 144.827 236.717 144.239V92.4533C236.717 84.5317 238.699 78.3 242.821 73.9278C247.051 69.4496 252.754 67.2507 259.805 67.2507C266.741 67.2507 272.33 69.4509 276.442 73.9325C280.561 78.3046 282.541 84.5346 282.541 92.4533V144.239C282.541 144.827 283.018 145.303 283.606 145.303H304.015C304.603 145.303 305.079 144.827 305.079 144.239V89.1056C305.079 80.4267 303.459 73.0888 300.269 67.0504L300.258 67.0293C297.175 60.8634 292.858 56.2729 287.306 53.214L287.292 53.2059C281.715 50.0192 275.323 48.4128 268.086 48.4128C261.765 48.4128 256.048 49.6188 250.917 52.0129L250.9 52.0212C245.764 54.3038 241.685 57.4839 238.633 61.5537L236.717 64.1083V3.19324C236.717 2.60538 236.241 2.12883 235.653 2.12883H215.244ZM50.2214 48.2366C40.7452 48.2366 32.4118 50.2576 25.1906 54.2693C17.9731 58.2791 12.3613 64.0022 8.34419 71.4626C4.32939 78.9186 2.30473 87.6081 2.30473 97.5628V146.889H50.2214C61.6571 146.889 71.2295 143.948 79.0027 138.119C86.0513 132.728 91.0258 126.045 93.9524 118.059C94.1716 117.461 93.7297 116.775 92.9936 116.775H70.5745C70.1802 116.775 69.787 117.004 69.5661 117.402C65.4278 124.856 58.739 128.58 49.6928 128.58C43.1049 128.58 37.4971 126.497 32.9392 122.309C28.3587 118.099 25.8035 112.309 25.1987 105.051L25.1026 103.898H95.8134C96.3438 103.898 96.761 103.52 96.8208 103.046C97.1108 100.742 97.2571 98.2107 97.2571 95.4485C97.2571 86.0919 95.2371 77.8784 91.2279 70.7765L91.2179 70.7588C87.3229 63.5415 81.7761 57.9944 74.5588 54.0994L74.5525 54.096C67.4445 50.198 59.3432 48.2366 50.2214 48.2366ZM24.1568 52.4084C31.7357 48.1979 40.434 46.1078 50.2214 46.1078C59.657 46.1078 68.1167 48.1394 75.5731 52.2277C83.1512 56.3182 88.9952 62.1613 93.0866 69.7385C97.2964 77.1997 99.3859 85.7802 99.3859 95.4485C99.3859 98.2843 99.2358 100.906 98.9329 103.312C98.7327 104.902 97.3642 106.027 95.8134 106.027H27.4351C28.1664 112.305 30.5023 117.178 34.3797 120.741C38.5138 124.54 43.595 126.451 49.6928 126.451C58.0348 126.451 63.9744 123.088 67.7049 116.369C68.2712 115.349 69.347 114.646 70.5745 114.646H92.9936C95.1096 114.646 96.7133 116.712 95.9512 118.791C92.879 127.175 87.6505 134.186 80.2918 139.813L80.2839 139.819C72.0832 145.97 62.0409 149.018 50.2214 149.018H0.175903V97.5628C0.175903 87.3142 2.26236 78.2672 6.46982 70.4533C10.6749 62.6438 16.5743 56.6209 24.1568 52.4084ZM157.868 48.2366C148.637 48.2366 140.485 50.3118 133.383 54.4355L133.372 54.442C126.271 58.4506 120.715 64.174 116.695 71.6388L116.692 71.6449C112.681 78.9799 110.656 87.6077 110.656 97.5628C110.656 107.516 112.68 116.204 116.694 123.66C120.712 131.007 126.27 136.735 133.378 140.863C140.481 144.871 148.634 146.889 157.868 146.889C169.657 146.889 179.398 143.83 187.166 137.776C194.295 132.219 199.271 124.888 202.093 115.745C202.28 115.139 201.825 114.484 201.112 114.484H178.771C178.329 114.484 177.896 114.772 177.702 115.248C176.008 119.41 173.479 122.591 170.092 124.721C166.713 126.846 162.559 127.875 157.692 127.875C150.354 127.875 144.46 125.228 140.128 119.906L140.121 119.897C135.809 114.477 133.722 106.987 133.722 97.5628C133.722 88.0299 135.805 80.5332 140.124 75.2245C144.452 69.7861 150.347 67.0745 157.692 67.0745C162.8 67.0745 167.142 68.3524 170.647 70.9747C173.826 73.1722 176.178 76.1455 177.701 79.8634C177.901 80.3506 178.34 80.6412 178.783 80.6412H201.134C201.842 80.6412 202.3 79.992 202.119 79.3844C199.301 69.9175 194.316 62.5366 187.182 57.1856L187.168 57.1751C179.522 51.2411 169.782 48.2366 157.868 48.2366ZM132.32 52.5914C139.782 48.2601 148.308 46.1078 157.868 46.1078C170.147 46.1078 180.373 49.2096 188.466 55.4878C195.999 61.1397 201.225 68.9214 204.16 78.7769C204.768 80.8198 203.192 82.77 201.134 82.77H178.783C177.394 82.77 176.226 81.8788 175.731 80.6701C174.355 77.309 172.252 74.6678 169.421 72.7151L169.403 72.7031L169.386 72.6904C166.316 70.3879 162.442 69.2033 157.692 69.2033C150.943 69.2033 145.681 71.6585 141.787 76.5539L141.779 76.5632C137.878 81.3559 135.851 88.3051 135.851 97.5628C135.851 106.695 137.875 113.651 141.784 118.568C145.674 123.344 150.937 125.746 157.692 125.746C162.262 125.746 165.997 124.781 168.959 122.919C171.914 121.06 174.178 118.259 175.73 114.446C176.222 113.236 177.392 112.356 178.771 112.356H201.112C203.179 112.356 204.76 114.323 204.128 116.373C201.184 125.908 195.967 133.615 188.475 139.455C180.268 145.851 170.041 149.018 157.868 149.018C148.311 149.018 139.787 146.926 132.326 142.714L132.314 142.707C124.861 138.379 119.027 132.363 114.824 124.678L114.821 124.672C110.614 116.858 108.527 107.811 108.527 97.5628C108.527 87.3158 110.613 78.3254 114.823 70.626C119.025 62.8246 124.859 56.8043 132.32 52.5914ZM369.733 48.2366C360.502 48.2366 352.166 50.3117 344.701 54.4462L344.69 54.4522C337.232 58.4678 331.326 64.1991 326.959 71.6662C322.719 79.1185 320.583 87.7401 320.583 97.5628C320.583 107.39 322.662 116.015 326.789 123.469C331.04 130.936 336.832 136.726 344.174 140.857C351.519 144.872 359.795 146.889 369.028 146.889C378.383 146.889 386.78 144.87 394.245 140.851C401.826 136.715 407.791 130.922 412.157 123.454L412.163 123.444C416.633 115.994 418.883 107.378 418.883 97.5628C418.883 87.7426 416.689 79.1231 412.333 71.6714L412.327 71.6607C408.078 64.197 402.232 58.4673 394.776 54.4522L394.765 54.4462C387.3 50.3117 378.963 48.2366 369.733 48.2366ZM343.675 52.581C351.478 48.2603 360.172 46.1078 369.733 46.1078C379.294 46.1078 387.987 48.2603 395.791 52.581C403.6 56.787 409.732 62.8005 414.174 70.6021C418.742 78.419 421.012 87.4169 421.012 97.5628C421.012 107.713 418.682 116.714 413.993 124.532C409.432 132.332 403.183 138.4 395.262 142.721L395.257 142.724C387.452 146.926 378.701 149.018 369.028 149.018C359.47 149.018 350.835 146.925 343.146 142.721L343.135 142.714C335.446 138.389 329.376 132.317 324.936 124.518L324.93 124.507C320.602 116.693 318.454 107.701 318.454 97.5628C318.454 87.4196 320.663 78.4239 325.112 70.6076L325.119 70.5969C329.678 62.7986 335.867 56.7866 343.675 52.581ZM33.3056 72.2756C37.7449 68.3301 43.1707 66.3698 49.5161 66.3698C56.2045 66.3698 61.9193 68.3828 66.5939 72.4398C71.3102 76.4144 73.715 81.7645 73.8375 88.3813L73.8576 89.4654H25.2078L25.3814 88.2505C26.349 81.4775 28.9679 76.1175 33.3056 72.2756ZM49.5161 68.4987C43.6463 68.4987 38.736 70.2968 34.7185 73.8679C31.0842 77.0868 28.7201 81.5486 27.684 87.3366H71.6662C71.3269 81.7857 69.1688 77.3912 65.2162 74.0627L65.2039 74.0523C60.9525 70.3604 55.7456 68.4987 49.5161 68.4987ZM369.381 69.7318C362.621 69.7318 356.969 72.1402 352.356 76.9777C347.906 81.6506 345.602 88.456 345.602 97.5627C345.602 106.668 347.847 113.54 352.189 118.333C356.677 123.041 362.265 125.394 369.028 125.394C373.314 125.394 377.307 124.381 381.023 122.355C384.824 120.23 387.856 117.095 390.116 112.914C392.362 108.759 393.512 103.656 393.512 97.5627C393.512 88.4693 391.098 81.6709 386.423 76.9963L386.405 76.9784C381.793 72.1406 376.141 69.7318 369.381 69.7318ZM350.815 75.5091C355.834 70.2453 362.045 67.603 369.381 67.603C376.712 67.603 382.92 70.2421 387.937 75.4994C393.124 80.6911 395.64 88.1024 395.64 97.5627C395.64 103.92 394.441 109.389 391.989 113.926C389.551 118.435 386.241 121.878 382.057 124.216L382.048 124.221C378.013 126.422 373.668 127.522 369.028 127.522C361.701 127.522 355.545 124.944 350.639 119.792L350.621 119.773C345.806 114.465 343.473 107.01 343.473 97.5627C343.473 88.1107 345.869 80.7029 350.815 75.5091Z" fill="url(#paint1_linear_44_42)"/>
<path fill-rule="evenodd" clip-rule="evenodd" d="M416.959 49.6484C409.74 42.4293 399.083 34.8263 385.118 34.1153C383.943 34.0555 382.987 33.1081 382.987 31.9324V9.88873C382.987 8.71301 383.941 7.75736 385.116 7.78348C405.933 8.24608 424.347 15.5082 437.723 28.8841C451.099 42.2601 458.361 60.6736 458.824 81.4909C458.85 82.6663 457.894 83.6199 456.718 83.6199H434.456C433.281 83.6199 432.333 82.6637 432.275 81.4894C431.583 67.5236 424.178 56.8675 416.959 49.6484Z" fill="url(#paint2_linear_44_42)"/>
<defs>
<linearGradient id="paint0_linear_44_42" x1="-112.741" y1="156.919" x2="75.2156" y2="-221.426" gradientUnits="userSpaceOnUse">
<stop stop-color="#192A64"/>
<stop offset="1" stop-color="#456EF8"/>
</linearGradient>
<linearGradient id="paint1_linear_44_42" x1="-114.385" y1="158.113" x2="77.3667" y2="-224.291" gradientUnits="userSpaceOnUse">
<stop stop-color="#192A64"/>
<stop offset="1" stop-color="#456EF8"/>
</linearGradient>
<linearGradient id="paint2_linear_44_42" x1="362.343" y1="88.2485" x2="477.099" y2="7.2113" gradientUnits="userSpaceOnUse">
<stop stop-color="#192A64"/>
<stop offset="1" stop-color="#456EF8"/>
</linearGradient>
</defs>
</svg>
